# xmcd
#
# Track frame offsets: 
#        150
#        9000
#        24150
#        41701
#        56852
#        69507
#        83498
#        119186
#        140295
#        175252
#        205200
#        224755
#        245603
#        256775
#
# Disc length: 3772 seconds
#
# Revision: 0
# Processed by: cddbd v1.5.2PL0 Copyright (c) Steve Scherf et al.
# Submitted via: ExactAudioCopy v0.95b4
#
DISCID=c40eba0e
DTITLE=ValBand - Live
DYEAR=1900
DGENRE=Blues/Rock
TTITLE0=Mercedes Benz (Janis Joplin Cover)
TTITLE1=Honky Tonk (Rolling Stones Cover)
TTITLE2=Ты Мне Нужен...
TTITLE3=Have You Ever Seen The Rain (Creedence Clearwater Revival Cove
TTITLE3=r)
TTITLE4=My Babe
TTITLE5=Hallelujah, I Love Her So (Ray Charles Cover)
TTITLE6=Midnight Special (Creedence Clearwater Revival Cover)
TTITLE7=It Hurts
TTITLE8=Light My Fire
TTITLE9=Peter Gunn
TTITLE10=Love Light
TTITLE11=Sweet Home Chicago
TTITLE12=People Are Strange (Doors Cover)
TTITLE13=Make Love To You
EXTD=
EXTT0=
EXTT1=
EXTT2=
EXTT3=
EXTT4=
EXTT5=
EXTT6=
EXTT7=
EXTT8=
EXTT9=
EXTT10=
EXTT11=
EXTT12=
EXTT13=
PLAYORDER=
